<svg xmlns="http://www.w3.org/2000/svg" viewBox="0 0 1200 1325.6" width="100%" role="img" aria-label="图 1 · skill 调用图(superpowers)"><title>图 1 · skill 调用图(superpowers)</title><desc>14 个 skill 的跨 skill 调用关系;三幕循环演示单击线 / 单击节点时的高亮与淡出。</desc><style>.t0{fill:none;stroke:#3c3f46}.t1{fill:none;stroke:#b45309;stroke-dasharray:5 4}.t2{fill:none;stroke:#4f46e5;stroke-dasharray:2 3}.t3{fill:#ffffff}.t4{font:700 10.5px ui-monospace,"SF Mono",Menlo,Consolas,"Courier New",monospace;fill:#7a7e88}.t5{font:700 13px -apple-system,"PingFang SC","Helvetica Neue","Microsoft YaHei",sans-serif;fill:#17181c}.t6{font:500 10.5px -apple-system,"PingFang SC","Helvetica Neue","Microsoft YaHei",sans-serif;fill:#7a7e88}.t7{fill:#ffffff;stroke-dasharray:4 3}.t8{font:600 12.5px -apple-system,"PingFang SC","Helvetica Neue","Microsoft YaHei",sans-serif;fill:#7a7e88}.a0{animation:k0 9s linear infinite}.a1{animation:k1 9s linear infinite}.a2{animation:k2 9s linear infinite}.a3{animation:k3 9s linear infinite}.a4{animation:k4 9s linear infinite}.a5{animation:k5 9s linear infinite}.a6{animation:k6 9s linear infinite}.a7{animation:k7 9s linear infinite}.a8{animation:k8 9s linear infinite}.a9{animation:k9 9s linear infinite}.a10{animation:k10 9s linear infinite}.a11{animation:k11 9s linear infinite}.a12{animation:k12 9s linear infinite}.a13{animation:k13 9s linear infinite}.a14{animation:k14 9s linear infinite}.a15{animation:k15 9s linear infinite}.a16{animation:k16 9s linear infinite}.a17{animation:k17 9s linear infinite}@keyframes k0{0%{opacity:1;stroke-width:1.5}2.2%{opacity:1;stroke-width:1.5}5.5%{opacity:1;stroke-width:1.5}8.8%{opacity:0.18;stroke-width:1.5}29.6%{opacity:0.18;stroke-width:1.5}33.3%{opacity:1;stroke-width:1.5}35.5%{opacity:1;stroke-width:1.5}38.8%{opacity:1;stroke-width:1.5}42.1%{opacity:0.18;stroke-width:1.5}62.9%{opacity:0.18;stroke-width:1.5}66.7%{opacity:1;stroke-width:1.5}68.9%{opacity:1;stroke-width:1.5}72.2%{opacity:1;stroke-width:1.5}75.5%{opacity:1;stroke-width:2.6}96.3%{opacity:1;stroke-width:2.6}100%{opacity:1;stroke-width:1.5}}@keyframes k1{0%{opacity:1;stroke-width:1.5}2.2%{opacity:1;stroke-width:1.5}5.5%{opacity:1;stroke-width:1.5}8.8%{opacity:0.18;stroke-width:1.5}29.6%{opacity:0.18;stroke-width:1.5}33.3%{opacity:1;stroke-width:1.5}35.5%{opacity:1;stroke-width:1.5}38.8%{opacity:1;stroke-width:1.5}42.1%{opacity:0.18;stroke-width:1.5}62.9%{opacity:0.18;stroke-width:1.5}66.7%{opacity:1;stroke-width:1.5}68.9%{opacity:1;stroke-width:1.5}72.2%{opacity:1;stroke-width:1.5}75.5%{opacity:0.18;stroke-width:1.5}96.3%{opacity:0.18;stroke-width:1.5}100%{opacity:1;stroke-width:1.5}}@keyframes k2{0%{opacity:1;stroke-width:1.5}2.2%{opacity:1;stroke-width:1.5}5.5%{opacity:1;stroke-width:2.6}8.8%{opacity:1;stroke-width:2.6}29.6%{opacity:1;stroke-width:2.6}33.3%{opacity:1;stroke-width:1.5}35.5%{opacity:1;stroke-width:1.5}38.8%{opacity:1;stroke-width:1.5}42.1%{opacity:0.18;stroke-width:1.5}62.9%{opacity:0.18;stroke-width:1.5}66.7%{opacity:1;stroke-width:1.5}68.9%{opacity:1;stroke-width:1.5}72.2%{opacity:1;stroke-width:1.5}75.5%{opacity:0.18;stroke-width:1.5}96.3%{opacity:0.18;stroke-width:1.5}100%{opacity:1;stroke-width:1.5}}@keyframes k3{0%{opacity:1;stroke-width:1.6}2.2%{opacity:1;stroke-width:1.6}5.5%{opacity:1;stroke-width:1.6}8.8%{opacity:0.18;stroke-width:1.6}29.6%{opacity:0.18;stroke-width:1.6}33.3%{opacity:1;stroke-width:1.6}35.5%{opacity:1;stroke-width:1.6}38.8%{opacity:1;stroke-width:1.6}42.1%{opacity:0.18;stroke-width:1.6}62.9%{opacity:0.18;stroke-width:1.6}66.7%{opacity:1;stroke-width:1.6}68.9%{opacity:1;stroke-width:1.6}72.2%{opacity:1;stroke-width:1.6}75.5%{opacity:1;stroke-width:2.6}96.3%{opacity:1;stroke-width:2.6}100%{opacity:1;stroke-width:1.6}}@keyframes k4{0%{opacity:1;stroke-width:1.3}2.2%{opacity:1;stroke-width:1.3}5.5%{opacity:1;stroke-width:1.3}8.8%{opacity:0.18;stroke-width:1.3}29.6%{opacity:0.18;stroke-width:1.3}33.3%{opacity:1;stroke-width:1.3}35.5%{opacity:1;stroke-width:1.3}38.8%{opacity:1;stroke-width:1.3}42.1%{opacity:0.18;stroke-width:1.3}62.9%{opacity:0.18;stroke-width:1.3}66.7%{opacity:1;stroke-width:1.3}68.9%{opacity:1;stroke-width:1.3}72.2%{opacity:1;stroke-width:1.3}75.5%{opacity:0.18;stroke-width:1.3}96.3%{opacity:0.18;stroke-width:1.3}100%{opacity:1;stroke-width:1.3}}@keyframes k5{0%{opacity:1;stroke-width:1.6}2.2%{opacity:1;stroke-width:1.6}5.5%{opacity:1;stroke-width:1.6}8.8%{opacity:0.18;stroke-width:1.6}29.6%{opacity:0.18;stroke-width:1.6}33.3%{opacity:1;stroke-width:1.6}35.5%{opacity:1;stroke-width:1.6}38.8%{opacity:1;stroke-width:1.6}42.1%{opacity:0.18;stroke-width:1.6}62.9%{opacity:0.18;stroke-width:1.6}66.7%{opacity:1;stroke-width:1.6}68.9%{opacity:1;stroke-width:1.6}72.2%{opacity:1;stroke-width:1.6}75.5%{opacity:0.18;stroke-width:1.6}96.3%{opacity:0.18;stroke-width:1.6}100%{opacity:1;stroke-width:1.6}}@keyframes k6{0%{opacity:1;stroke-width:1.6}2.2%{opacity:1;stroke-width:1.6}5.5%{opacity:1;stroke-width:1.6}8.8%{opacity:0.18;stroke-width:1.6}29.6%{opacity:0.18;stroke-width:1.6}33.3%{opacity:1;stroke-width:1.6}35.5%{opacity:1;stroke-width:1.6}38.8%{opacity:1;stroke-width:2.6}42.1%{opacity:1;stroke-width:2.6}62.9%{opacity:1;stroke-width:2.6}66.7%{opacity:1;stroke-width:1.6}68.9%{opacity:1;stroke-width:1.6}72.2%{opacity:1;stroke-width:1.6}75.5%{opacity:1;stroke-width:2.6}96.3%{opacity:1;stroke-width:2.6}100%{opacity:1;stroke-width:1.6}}@keyframes k7{0%{opacity:1;stroke-width:1.3}2.2%{opacity:1;stroke-width:1.3}5.5%{opacity:1;stroke-width:1.3}8.8%{opacity:0.18;stroke-width:1.3}29.6%{opacity:0.18;stroke-width:1.3}33.3%{opacity:1;stroke-width:1.3}35.5%{opacity:1;stroke-width:1.3}38.8%{opacity:1;stroke-width:1.3}42.1%{opacity:0.18;stroke-width:1.3}62.9%{opacity:0.18;stroke-width:1.3}66.7%{opacity:1;stroke-width:1.3}68.9%{opacity:1;stroke-width:1.3}72.2%{opacity:1;stroke-width:1.3}75.5%{opacity:1;stroke-width:2.6}96.3%{opacity:1;stroke-width:2.6}100%{opacity:1;stroke-width:1.3}}@keyframes k8{0%{opacity:1}2.2%{opacity:1}5.5%{opacity:1}8.8%{opacity:0.35}29.6%{opacity:0.35}33.3%{opacity:1}35.5%{opacity:1}38.8%{opacity:1}42.1%{opacity:0.35}62.9%{opacity:0.35}66.7%{opacity:1}68.9%{opacity:1}72.2%{opacity:1}75.5%{opacity:1}96.3%{opacity:1}100%{opacity:1}}@keyframes k9{0%{stroke:#e6e7eb;stroke-width:1}2.2%{stroke:#e6e7eb;stroke-width:1}5.5%{stroke:#e6e7eb;stroke-width:1}8.8%{stroke:#e6e7eb;stroke-width:1}29.6%{stroke:#e6e7eb;stroke-width:1}33.3%{stroke:#e6e7eb;stroke-width:1}35.5%{stroke:#e6e7eb;stroke-width:1}38.8%{stroke:#e6e7eb;stroke-width:1}42.1%{stroke:#e6e7eb;stroke-width:1}62.9%{stroke:#e6e7eb;stroke-width:1}66.7%{stroke:#e6e7eb;stroke-width:1}68.9%{stroke:#e6e7eb;stroke-width:1}72.2%{stroke:#e6e7eb;stroke-width:1}75.5%{stroke:#4f46e5;stroke-width:1.8}96.3%{stroke:#4f46e5;stroke-width:1.8}100%{stroke:#e6e7eb;stroke-width:1}}@keyframes k10{0%{opacity:1}2.2%{opacity:1}5.5%{opacity:1}8.8%{opacity:0.35}29.6%{opacity:0.35}33.3%{opacity:1}35.5%{opacity:1}38.8%{opacity:1}42.1%{opacity:0.35}62.9%{opacity:0.35}66.7%{opacity:1}68.9%{opacity:1}72.2%{opacity:1}75.5%{opacity:0.35}96.3%{opacity:0.35}100%{opacity:1}}@keyframes k11{0%{stroke:#e6e7eb;stroke-width:1}2.2%{stroke:#e6e7eb;stroke-width:1}5.5%{stroke:#e6e7eb;stroke-width:1}8.8%{stroke:#e6e7eb;stroke-width:1}29.6%{stroke:#e6e7eb;stroke-width:1}33.3%{stroke:#e6e7eb;stroke-width:1}35.5%{stroke:#e6e7eb;stroke-width:1}38.8%{stroke:#e6e7eb;stroke-width:1}42.1%{stroke:#e6e7eb;stroke-width:1}62.9%{stroke:#e6e7eb;stroke-width:1}66.7%{stroke:#e6e7eb;stroke-width:1}68.9%{stroke:#e6e7eb;stroke-width:1}72.2%{stroke:#e6e7eb;stroke-width:1}75.5%{stroke:#e6e7eb;stroke-width:1}96.3%{stroke:#e6e7eb;stroke-width:1}100%{stroke:#e6e7eb;stroke-width:1}}@keyframes k12{0%{opacity:1}2.2%{opacity:1}5.5%{opacity:1}8.8%{opacity:1}29.6%{opacity:1}33.3%{opacity:1}35.5%{opacity:1}38.8%{opacity:1}42.1%{opacity:0.35}62.9%{opacity:0.35}66.7%{opacity:1}68.9%{opacity:1}72.2%{opacity:1}75.5%{opacity:1}96.3%{opacity:1}100%{opacity:1}}@keyframes k13{0%{stroke:#e6e7eb;stroke-width:1}2.2%{stroke:#e6e7eb;stroke-width:1}5.5%{stroke:#e6e7eb;stroke-width:1}8.8%{stroke:#4f46e5;stroke-width:1.8}29.6%{stroke:#4f46e5;stroke-width:1.8}33.3%{stroke:#e6e7eb;stroke-width:1}35.5%{stroke:#e6e7eb;stroke-width:1}38.8%{stroke:#e6e7eb;stroke-width:1}42.1%{stroke:#e6e7eb;stroke-width:1}62.9%{stroke:#e6e7eb;stroke-width:1}66.7%{stroke:#e6e7eb;stroke-width:1}68.9%{stroke:#e6e7eb;stroke-width:1}72.2%{stroke:#e6e7eb;stroke-width:1}75.5%{stroke:#4f46e5;stroke-width:1.8}96.3%{stroke:#4f46e5;stroke-width:1.8}100%{stroke:#e6e7eb;stroke-width:1}}@keyframes k14{0%{opacity:1}2.2%{opacity:1}5.5%{opacity:1}8.8%{opacity:1}29.6%{opacity:1}33.3%{opacity:1}35.5%{opacity:1}38.8%{opacity:1}42.1%{opacity:1}62.9%{opacity:1}66.7%{opacity:1}68.9%{opacity:1}72.2%{opacity:1}75.5%{opacity:1}96.3%{opacity:1}100%{opacity:1}}@keyframes k15{0%{stroke:#e6e7eb;stroke-width:1}2.2%{stroke:#e6e7eb;stroke-width:1}5.5%{stroke:#e6e7eb;stroke-width:1}8.8%{stroke:#4f46e5;stroke-width:1.8}29.6%{stroke:#4f46e5;stroke-width:1.8}33.3%{stroke:#e6e7eb;stroke-width:1}35.5%{stroke:#e6e7eb;stroke-width:1}38.8%{stroke:#e6e7eb;stroke-width:1}42.1%{stroke:#4f46e5;stroke-width:1.8}62.9%{stroke:#4f46e5;stroke-width:1.8}66.7%{stroke:#e6e7eb;stroke-width:1}68.9%{stroke:#e6e7eb;stroke-width:1}72.2%{stroke:#e6e7eb;stroke-width:1}75.5%{stroke:#4f46e5;stroke-width:1.8}96.3%{stroke:#4f46e5;stroke-width:1.8}100%{stroke:#e6e7eb;stroke-width:1}}@keyframes k16{0%{opacity:1}2.2%{opacity:1}5.5%{opacity:1}8.8%{opacity:0.35}29.6%{opacity:0.35}33.3%{opacity:1}35.5%{opacity:1}38.8%{opacity:1}42.1%{opacity:1}62.9%{opacity:1}66.7%{opacity:1}68.9%{opacity:1}72.2%{opacity:1}75.5%{opacity:1}96.3%{opacity:1}100%{opacity:1}}@keyframes k17{0%{stroke:#e6e7eb;stroke-width:1}2.2%{stroke:#e6e7eb;stroke-width:1}5.5%{stroke:#e6e7eb;stroke-width:1}8.8%{stroke:#e6e7eb;stroke-width:1}29.6%{stroke:#e6e7eb;stroke-width:1}33.3%{stroke:#e6e7eb;stroke-width:1}35.5%{stroke:#e6e7eb;stroke-width:1}38.8%{stroke:#e6e7eb;stroke-width:1}42.1%{stroke:#4f46e5;stroke-width:1.8}62.9%{stroke:#4f46e5;stroke-width:1.8}66.7%{stroke:#e6e7eb;stroke-width:1}68.9%{stroke:#e6e7eb;stroke-width:1}72.2%{stroke:#4f46e5;stroke-width:1.8}75.5%{stroke:#4f46e5;stroke-width:1.8}96.3%{stroke:#4f46e5;stroke-width:1.8}100%{stroke:#e6e7eb;stroke-width:1}}</style><defs><marker id="m-me" viewBox="0 0 10 10" refX="9" refY="5" markerWidth="6.5" markerHeight="6.5" orient="auto-start-reverse"><path d="M0,0L10,5L0,10z" fill="#3c3f46"/></marker><marker id="m-mc" viewBox="0 0 10 10" refX="9" refY="5" markerWidth="6.5" markerHeight="6.5" orient="auto-start-reverse"><path d="M0,0L10,5L0,10z" fill="#4f46e5"/></marker><marker id="m-ml" viewBox="0 0 10 10" refX="9" refY="5" markerWidth="6.5" markerHeight="6.5" orient="auto-start-reverse"><path d="M0,0L10,5L0,10z" fill="#b45309"/></marker><marker id="m-md" viewBox="0 0 10 10" refX="9" refY="5" markerWidth="6" markerHeight="6" orient="auto-start-reverse"><path d="M0,0L10,5L0,10z" fill="#7a7e88"/></marker></defs><rect width="1200" height="1325.6" fill="#fafafa"/><g transform="translate(16.3 16.2) scale(1.3)"><g class="a8"><rect x="316.5" y="161.5" width="149" height="64" rx="10" class="t3 a9"/><text x="329" y="176" class="t4" letter-spacing="0.6">L2</text><text x="329" y="192.5" class="t5">把想法聊成设计</text><text x="329" y="209.2" class="t6">九步清单按序执行</text></g><g class="a10"><rect x="671.5" y="6.5" width="149" height="64" rx="10" class="t7 a11"/><text x="684" y="21" class="t4" letter-spacing="0.6">孤立</text><text x="684" y="37.5" class="t5">并行分派子 agent</text><text x="684" y="54.2" class="t6">分域→写任务→并发→整…</text></g><g class="a12"><rect x="229.5" y="485.5" width="149" height="64" rx="10" class="t3 a13"/><text x="242" y="500" class="t4" letter-spacing="0.6">L4</text><text x="242" y="516.5" class="t5">按计划逐任务执行</text><text x="242" y="533.2" class="t6">宣告并判断平台</text></g><g class="a10"><rect x="55.5" y="893.5" width="149" height="64" rx="10" class="t3 a11"/><text x="68" y="908" class="t4" letter-spacing="0.6">L6</text><text x="68" y="924.5" class="t5">收尾:合并/PR/清理</text><text x="68" y="941.2" class="t6">六步收尾主流程</text></g><g class="a10"><rect x="671.5" y="90.5" width="149" height="64" rx="10" class="t7 a11"/><text x="684" y="105" class="t4" letter-spacing="0.6">孤立</text><text x="684" y="121.5" class="t5">审慎接收审查意见</text><text x="684" y="138.2" class="t6">读→懂→核→判→答→改</text></g><g class="a10"><rect x="316.5" y="302.5" width="149" height="64" rx="10" class="t3 a11"/><text x="329" y="317" class="t4" letter-spacing="0.6">L3</text><text x="329" y="333.5" class="t5">发起代码审查</text><text x="329" y="350.2" class="t6">取SHA·派发·处理反馈</text></g><g class="a14"><rect x="229.5" y="654.5" width="149" height="64" rx="10" class="t3 a15"/><text x="242" y="669" class="t4" letter-spacing="0.6">L5</text><text x="242" y="685.5" class="t5">子 agent 逐任务实现</text><text x="242" y="702.2" class="t6">派实现·双审·下一任务</text></g><g class="a10"><rect x="55.5" y="6.5" width="149" height="64" rx="10" class="t3 a11"/><text x="68" y="21" class="t4" letter-spacing="0.6">L1</text><text x="68" y="37.5" class="t5">先找根因再修</text><text x="68" y="54.2" class="t6">四阶段:查因到实施</text></g><g class="a10"><rect x="229.5" y="893.5" width="149" height="64" rx="10" class="t3 a11"/><text x="242" y="908" class="t4" letter-spacing="0.6">L6</text><text x="242" y="924.5" class="t5">红-绿-重构</text><text x="242" y="941.2" class="t6">红-绿-重构主循环</text></g><g class="a8"><rect x="403.5" y="893.5" width="149" height="64" rx="10" class="t3 a9"/><text x="416" y="908" class="t4" letter-spacing="0.6">L6</text><text x="416" y="924.5" class="t5">隔离工作区</text><text x="416" y="941.2" class="t6">宣告并立三步优先级</text></g><g class="a10"><rect x="229.5" y="6.5" width="149" height="64" rx="10" class="t3 a11"/><text x="242" y="21" class="t4" letter-spacing="0.6">L1</text><text x="242" y="37.5" class="t5">先查有无适用 skill</text><text x="242" y="54.2" class="t6">查→调→宣告→照做</text></g><g class="a10"><rect x="142.5" y="161.5" width="149" height="64" rx="10" class="t3 a11"/><text x="155" y="176" class="t4" letter-spacing="0.6">L2</text><text x="155" y="192.5" class="t5">先验证再宣布完成</text><text x="155" y="209.2" class="t6">闸口五步走完才断言</text></g><g class="a16"><rect x="142.5" y="302.5" width="149" height="64" rx="10" class="t3 a17"/><text x="155" y="317" class="t4" letter-spacing="0.6">L3</text><text x="155" y="333.5" class="t5">把设计拆成计划</text><text x="155" y="350.2" class="t6">宣告·落盘·范围检查</text></g><g class="a10"><rect x="403.5" y="6.5" width="149" height="64" rx="10" class="t3 a11"/><text x="416" y="21" class="t4" letter-spacing="0.6">L1</text><text x="416" y="37.5" class="t5">编写与测试 skill</text><text x="416" y="54.2" class="t6">红-绿-重构循环</text></g><path d="M 391 226 L 391 227.2 Q 391 235.2 383 235.2 L 263 235.2 Q 255 235.2 255 243.2 L 255 302" class="t0 a0" marker-end="url(#m-me)"/><path d="M 259 550 L 259 554.4 Q 259 558.9 254.6 558.9 L 123 558.9 Q 115 558.9 115 566.9 L 115 722.5 Q 115 727.5 110 727.5 L 110 727.5 Q 105 727.5 105 732.5 L 105 893" class="t0 a1" marker-end="url(#m-me)"/><path d="M 319 550 L 319 566.2 Q 319 573.7 311.5 573.7 L 311.5 573.7 Q 304 573.7 304 581.2 L 304 654" class="t0 a2" marker-end="url(#m-me)"/><path d="M 349 550 L 349 580.6 Q 349 588.6 357 588.6 L 788 588.6 Q 796 588.6 796 596.6 L 796 734 Q 796 742 788 742 L 486 742 Q 478 742 478 750 L 478 893" class="t0 a1" marker-end="url(#m-me)"/><path d="M 289 550 L 289 595.4 Q 289 603.4 281 603.4 L 79 603.4 Q 71 603.4 71 595.4 L 71 258.4 Q 71 250.4 79 250.4 L 172 250.4 Q 180 250.4 180 258.4 L 180 302" class="t1 a3" marker-end="url(#m-ml)"/><path d="M 366 367 L 366 367.8 Q 366 375.8 358 375.8 L 350 375.8 Q 342 375.8 342 383.8 L 342 485" class="t2 a4" marker-end="url(#m-mc)"/><path d="M 416 367 L 416 382.5 Q 416 390.5 424 390.5 L 599 390.5 Q 607 390.5 607 398.5 L 607 610.3 Q 607 618.3 599 618.3 L 350 618.3 Q 342 618.3 342 626.3 L 342 654" class="t2 a4" marker-end="url(#m-mc)"/><path d="M 293 719 L 293 748.5 Q 293 756.5 301 756.5 L 611 756.5 Q 619 756.5 619 748.5 L 619 413.3 Q 619 405.3 611 405.3 L 312 405.3 Q 304 405.3 304 413.3 L 304 485" class="t1 a5" marker-end="url(#m-ml)"/><path d="M 250 719 L 250 763 Q 250 771 242 771 L 163 771 Q 155 771 155 779 L 155 893" class="t0 a1" marker-end="url(#m-me)"/><path d="M 336 719 L 336 777.5 Q 336 785.5 344 785.5 L 831 785.5 Q 839 785.5 839 777.5 L 839 273.6 Q 839 265.6 831 265.6 L 399 265.6 Q 391 265.6 391 273.6 L 391 302" class="t1 a5" marker-end="url(#m-ml)"/><path d="M 315 719 L 315 794.5 Q 315 800 309.5 800 L 309.5 800 Q 304 800 304 805.5 L 304 893" class="t0 a1" marker-end="url(#m-me)"/><path d="M 358 719 L 358 806.5 Q 358 814.5 366 814.5 L 508 814.5 Q 516 814.5 516 822.5 L 516 893" class="t0 a1" marker-end="url(#m-me)"/><path d="M 272 719 L 272 821 Q 272 829 280 829 L 587 829 Q 595 829 595 821 L 595 288.8 Q 595 280.8 587 280.8 L 225 280.8 Q 217 280.8 217 288.8 L 217 302" class="t1 a6" marker-end="url(#m-ml)"/><path d="M 155 71 L 155 75.5 Q 155 80 159.5 80 L 563 80 Q 571 80 571 88 L 571 835.5 Q 571 843.5 563 843.5 L 275 843.5 Q 267 843.5 267 851.5 L 267 893" class="t0 a1" marker-end="url(#m-me)"/><path d="M 105 71 L 105 87 Q 105 95 113 95 L 209 95 Q 217 95 217 103 L 217 161" class="t0 a1" marker-end="url(#m-me)"/><path d="M 304 71 L 304 102 Q 304 110 312 110 L 408 110 Q 416 110 416 118 L 416 161" class="t0 a1" marker-end="url(#m-me)"/><path d="M 232 367 L 232 412 Q 232 420 240 420 L 296 420 Q 304 420 304 412 L 304 133 Q 304 125 312 125 L 358 125 Q 366 125 366 133 L 366 161" class="t1 a3" marker-end="url(#m-ml)"/><path d="M 172 367 L 172 426.8 Q 172 434.8 180 434.8 L 259 434.8 Q 267 434.8 267 442.8 L 267 485" class="t0 a0" marker-end="url(#m-me)"/><path d="M 202 367 L 202 441.5 Q 202 449.5 210 449.5 L 623 449.5 Q 631 449.5 631 457.5 L 631 625.1 Q 631 633.1 623 633.1 L 275 633.1 Q 267 633.1 267 641.1 L 267 654" class="t0 a0" marker-end="url(#m-me)"/><path d="M 262 367 L 262 456.3 Q 262 464.3 270 464.3 L 635 464.3 Q 643 464.3 643 472.3 L 643 850 Q 643 858 635 858 L 449 858 Q 441 858 441 866 L 441 893" class="t2 a7" marker-end="url(#m-mc)"/><path d="M 478 71 L 478 132 Q 478 140 486 140 L 575 140 Q 583 140 583 148 L 583 864.5 Q 583 872.5 575 872.5 L 350 872.5 Q 342 872.5 342 880.5 L 342 893" class="t0 a1" marker-end="url(#m-me)"/></g><text x="600" y="1309.6" text-anchor="middle" class="t8">单击线或节点 → 高亮两端,其余淡出 · 实线 = 交棒 · 点线 = 取用 · 橙虚线 = 回头</text></svg>